<svg width="60" height="60" fill="none" xmlns="http://www.w3.org/2000/svg"><path d="M43.71 48.927l-11.805-6.534c4.387-3.448 5.58-10.226 5.58-14.027v-7.91c0-5.238-6.966-11.071-13.963-11.071-6.993 0-14.144 5.833-14.144 11.07v7.912c0 3.456 1.463 10.445 5.895 13.996L3.165 48.925S0 50.335 0 52.09v4.747A3.166 3.166 0 003.165 60h40.544a3.167 3.167 0 003.165-3.164V52.09c0-1.862-3.167-3.164-3.167-3.164l.002.002zm-.586 7.33H3.75v-3.35c.268-.196.645-.422.941-.557.088-.04.176-.083.26-.132l12.11-6.561a3.748 3.748 0 001.948-2.958 3.747 3.747 0 00-1.389-3.258c-3.144-2.52-4.492-8.096-4.492-11.073v-7.91c0-2.692 5.077-7.325 10.394-7.325 5.417 0 10.213 4.571 10.213 7.325v7.91c0 2.934-.911 8.537-4.148 11.08a3.751 3.751 0 00-1.419 3.258 3.754 3.754 0 001.94 2.977l11.805 6.534c.103.056.236.118.345.166.277.118.617.313.866.486v3.388zM56.831 39.6l-11.98-6.534c4.387-3.448 5.756-10.226 5.756-14.026v-7.911C50.607 5.89 43.467 0 36.47 0c-4.546 0-9.194 2.47-11.9 5.633 1.543.095 3.244.097 4.714.566a11.66 11.66 0 017.186-2.45c5.417 0 10.387 4.626 10.387 7.382v7.91c0 2.934-1.087 8.537-4.322 11.08a3.746 3.746 0 00.522 6.235l11.98 6.534c.103.056.236.118.345.166.278.119.617.313.866.486v3.332H48.68c1.144.862 1.49 2.094 1.933 3.747h6.223A3.167 3.167 0 0060 47.457v-4.689c-.002-1.864-3.169-3.168-3.169-3.168z" fill="#D8A242"/></svg>