<svg width="73" height="64" fill="none" xmlns="http://www.w3.org/2000/svg"><path d="M36.5 27.263c6.93 0 12.546-5.655 12.546-12.631C49.046 7.655 43.429 2 36.501 2c-6.93 0-12.546 5.655-12.546 12.632 0 6.976 5.617 12.631 12.546 12.631z" stroke="#D8A242" stroke-width="4"/><path d="M55.318 24.105c5.197 0 9.41-3.534 9.41-7.894s-4.213-7.895-9.41-7.895M17.683 24.105c-5.197 0-9.41-3.534-9.41-7.894s4.213-7.895 9.41-7.895" stroke="#D8A242" stroke-width="4" stroke-linecap="round"/><path d="M36.5 62c10.393 0 18.818-5.655 18.818-12.632 0-6.976-8.425-12.631-18.818-12.631s-18.818 5.655-18.818 12.631C17.682 56.345 26.107 62 36.5 62z" stroke="#D8A242" stroke-width="4"/><path d="M61.592 55.684C67.094 54.47 71 51.393 71 47.79c0-3.603-3.907-6.68-9.41-7.894M11.41 55.684C5.906 54.47 2 51.393 2 47.79c0-3.603 3.907-6.68 9.41-7.894" stroke="#D8A242" stroke-width="4" stroke-linecap="round"/></svg>