<svg width="31" height="31" fill="none" xmlns="http://www.w3.org/2000/svg"><path d="M15.5 2.583c7.134 0 12.917 5.783 12.917 12.917 0 7.134-5.783 12.917-12.917 12.917-7.134 0-12.916-5.783-12.916-12.917 0-7.134 5.782-12.917 12.916-12.917zm0 2.584a10.333 10.333 0 100 20.667 10.333 10.333 0 000-20.667zm0 2.583a1.292 1.292 0 011.283 1.14l.009.152v5.923l3.496 3.497a1.292 1.292 0 01-1.705 1.933l-.121-.107-3.875-3.875c-.2-.2-.33-.462-.367-.744l-.011-.169V9.042A1.292 1.292 0 0115.5 7.75z" fill="#D8A242"/></svg>