<svg width="29" height="29" fill="none" xmlns="http://www.w3.org/2000/svg"><path d="M14.496 9.665A4.846 4.846 0 009.661 14.5a4.846 4.846 0 004.835 4.835 4.846 4.846 0 004.835-4.835 4.846 4.846 0 00-4.835-4.835zM28.998 14.5c0-2.002.018-3.987-.094-5.985-.112-2.322-.642-4.382-2.34-6.08-1.7-1.701-3.758-2.227-6.08-2.34-2-.112-3.985-.094-5.984-.094-2.003 0-3.987-.018-5.985.094-2.322.113-4.382.642-6.08 2.34C.734 4.136.208 6.193.095 8.515-.017 10.517.001 12.5.001 14.5s-.018 3.987.094 5.985c.113 2.322.642 4.382 2.34 6.08 1.701 1.701 3.758 2.227 6.08 2.34 2.002.112 3.986.094 5.985.094 2.002 0 3.986.018 5.985-.094 2.321-.113 4.382-.643 6.08-2.34 1.7-1.701 2.227-3.758 2.34-6.08.115-1.998.093-3.983.093-5.985zm-14.502 7.44a7.43 7.43 0 01-7.44-7.44 7.43 7.43 0 017.44-7.44 7.43 7.43 0 017.44 7.44 7.43 7.43 0 01-7.44 7.44zm7.745-13.447a1.735 1.735 0 01-1.738-1.738c0-.96.776-1.737 1.738-1.737a1.735 1.735 0 011.605 2.403 1.735 1.735 0 01-1.605 1.072z" fill="#D8A242"/></svg>