<svg width="38" height="42" fill="none" xmlns="http://www.w3.org/2000/svg"><path fill-rule="evenodd" clip-rule="evenodd" d="M19 0c5.04 0 9.872 1.975 13.435 5.49A18.617 18.617 0 0138 18.744c0 6.402-3.538 11.642-7.266 15.401a43.026 43.026 0 01-6.072 5.032l-.9.604-.422.277-.795.5-.71.427-.878.504a3.998 3.998 0 01-3.914 0l-.878-.504-1.098-.666-.405-.26-.866-.57a43.445 43.445 0 01-6.53-5.343C3.538 30.383 0 25.145 0 18.743c0-4.97 2.002-9.738 5.565-13.253A19.132 19.132 0 0119 0zm0 4.165a14.88 14.88 0 00-10.45 4.27 14.48 14.48 0 00-4.328 10.31c0 4.835 2.686 9.08 6.061 12.487a37.942 37.942 0 004.691 3.978l.967.679c.312.214.612.414.901.6l.824.52.724.435.61.352.96-.56.775-.479a38.92 38.92 0 001.324-.868l.967-.68a37.942 37.942 0 004.69-3.977c3.376-3.405 6.062-7.652 6.062-12.488A14.48 14.48 0 0029.45 8.435 14.88 14.88 0 0019 4.165zm0 6.248c2.24 0 4.387.878 5.971 2.44a8.274 8.274 0 012.473 5.891c0 2.21-.89 4.329-2.473 5.89A8.503 8.503 0 0119 27.075a8.503 8.503 0 01-5.971-2.44 8.274 8.274 0 01-2.473-5.89c0-2.21.89-4.328 2.473-5.89A8.503 8.503 0 0119 10.413zm0 4.166c-1.12 0-2.194.439-2.986 1.22a4.137 4.137 0 00-1.236 2.945c0 1.105.445 2.164 1.236 2.945A4.252 4.252 0 0019 22.91c1.12 0 2.194-.438 2.986-1.22a4.137 4.137 0 001.236-2.945 4.137 4.137 0 00-1.236-2.945A4.252 4.252 0 0019 14.579z" fill="#D8A242"/></svg>