<svg xmlns="http://www.w3.org/2000/svg" width="148" height="150" viewBox="0 0 39.69 40.14" xmlns:xlink="http://www.w3.org/1999/xlink" shape-rendering="geometricPrecision" text-rendering="geometricPrecision" image-rendering="optimizeQuality" fill-rule="evenodd" clip-rule="evenodd"><defs><linearGradient id="id0" gradientUnits="userSpaceOnUse" x1="8.04" y1="9.12" x2="30.83" y2="3.65"><stop offset="0" stop-color="#f0c858"/><stop offset=".231" stop-color="#bc6a1d"/><stop offset=".329" stop-color="#e5bb51"/><stop offset=".69" stop-color="#b9681d"/><stop offset="1" stop-color="#e5bb51"/></linearGradient><linearGradient id="id1" gradientUnits="userSpaceOnUse" xlink:href="#id0" x1="4.04" y1="35.96" x2="34.48" y2="31.97"/><style>.fil0{fill:#fff;fill-rule:nonzero}</style></defs><g id="Слой_x0020_1"><path class="fil0" d="M2.68 25.76H1.55v-4.3H0v-.99h4.22v.99H2.68v4.3zm6.68 0H8.08l-.33-.9H5.49l-.34.9H3.87l2.04-5.29h1.42l2.03 5.29zm-1.91-1.89l-.83-2.28-.82 2.28h1.65zm4.23 1.98c-.94 0-1.69-.28-2.24-.84l.61-.86c.46.48 1.02.72 1.68.72.3 0 .52-.06.68-.17.16-.12.24-.26.24-.42 0-.14-.07-.26-.22-.36-.15-.09-.34-.16-.56-.2-.23-.04-.47-.11-.74-.19-.26-.07-.51-.16-.73-.26A1.363 1.363 0 019.61 22c0-.46.18-.84.55-1.15.36-.31.85-.46 1.46-.46.84 0 1.52.24 2.06.73l-.63.83c-.42-.39-.93-.58-1.54-.58-.24 0-.42.05-.55.14-.13.1-.2.23-.2.39 0 .13.07.24.23.32.15.09.33.15.56.2.22.04.47.1.73.18.26.09.5.18.73.28.22.1.41.27.56.48.15.22.23.49.23.79 0 .51-.18.92-.55 1.23-.36.31-.88.47-1.57.47zm7.63-.09h-1.13v-2.23h-2.5v2.23h-1.12v-5.29h1.12v2.07h2.5v-2.07h1.13v5.29zm5.57 0h-1.39l-1.6-2.12-.41.49v1.63h-1.13v-5.29h1.13v2.36l1.87-2.36h1.39l-2.1 2.48 2.24 2.81zm4.26 0H25.4v-5.29h3.74v.99h-2.62v1.12h2.56v.99h-2.56v1.19h2.62v1zm5.61 0h-1.08l-2.53-3.45v3.45h-1.12v-5.29h1.16l2.45 3.32v-3.32h1.12v5.29zm3.4 0h-1.13v-4.3h-1.55v-.99h4.22v.99h-1.54v4.3z"/><path d="M25.13 0h4.01v3.99h-4.01V0zM10.55 3.99V0h8.83v3.99h-8.83zm8.86.93v6.62l-4 1.63V4.92h4zM20.27 0h4v8.4h2.88l-6.88 2.79V0z" fill="url(#id0)"/><path class="fil0" d="M17.88 18.58l-.47-.46-.46.46h.93zm4.86 0l-.47-.46-.46.46h.93zm-1.54-1.54l-.34-.34-.48.48.34.34h.48v-.48zm.15.63v.48l.34.34.48-.48-.35-.34h-.47zm.22.91l-.37-.37v-.54h-.54l-.39-.38v1.29h1.3zm-.81-1.99l-.49-.47v.96l.49-.49zm.44-.92h-.48l-.34.34.48.48.34-.34v-.48zm.49-.96l-.34.33v.49h.47l.35-.35-.48-.47zm1.06-.11l-.48-.48-.47.48.47.48.48-.48zm.6 1.07v.48l.33.34.49-.48-.35-.34h-.47zm-.15-.14v-.49l-.35-.33-.47.47.34.35h.48zm0 2.14h-.48l-.34.34.47.48.35-.34v-.48zm1.07-.38l-.38.38h-.54v.54l-.37.37h1.29v-1.29zm-1.05-.33l.36-.37-.38-.38v-.54h-.55l-.38-.38-.38.38h-.54v.54l-.38.38.38.39v.54h.54l.38.39.38-.39h.55v-.54l.02-.02zm.46-.26l-.33.34v.48h.47l.35-.34-.49-.48zm.59-.58l-.48.47.48.49v-.96zm-3.07-3.07l-.34-.34-.48.47.34.34h.48v-.47zm.15.63v.47l.34.35.48-.49-.35-.33h-.47zm-1.08 2.23l.39-.38h.54v-.55l.02-.02.37-.36-.39-.39v-.53h-.54l-.39-.39v2.62zm1.09-4.39h.46l.32-.31-.78.31zm-.6 1.08l-.49-.47v.94l.49-.47zm.44-.45v-.47h-.21l-.67.27.54.54.34-.34zm2.15-.47v.47l.33.34.49-.47-.35-.34h-.47zm-.15-.16v-.47l-.19-.19-.68.27.39.39h.48zm0 2.16h-.48l-.34.33.47.49.35-.35v-.47zm1.07-.39l-.38.39h-.54v.53l-.39.39.39.38v.55h.54l.38.38v-2.62zm-1.05-.32l.36-.37-.38-.38v-.54h-.55l-.38-.39-.38.39h-.54v.54l-.38.38.38.38v.54h.54l.38.38.38-.38h.55v-.54l.02-.01zm.46-.26l-.33.34v.47h.47l.35-.34-.49-.47zm-.52-1.91l.19.19v.53h.54l.38.39v-1.56l-1.11.45zm-9.93 4.09l.19.19.46-.46-.65.27zm3.11 2.15L16 16.7l-.49.48.35.34h.48v-.48zm.15.63v.48l.34.34.47-.48-.34-.34h-.47zm-2.15-2.51v-.12l-.34-.33-.46.45h.8zm2.37 3.42l-.37-.37v-.54h-.54l-.39-.38v1.29h1.3zm-.82-1.99l-.48-.47v.96l.48-.49zm.45-.92h-.48l-.35.34.49.48.34-.34v-.48zm.49-.96l-.34.33v.49h.47l.34-.35-.47-.47zm1.06-.11l-.48-.48-.48.48.48.48.48-.48zm-4.6.56l-.22-.22-.52.22h.74zm5.2.51v.48l.33.34.49-.48-.35-.34h-.47zm-.16-.14v-.49l-.34-.33-.47.47.34.35h.47zm0 2.14h-.47l-.34.34.47.48.34-.34v-.48zm1.08-.38l-.38.38h-.54v.54l-.38.37h1.3v-1.29zm-1.05-.33l.36-.37-.39-.38v-.54h-.54l-.38-.38-.38.38h-.54v.54l-.39.38.39.39v.54h.54l.38.39.38-.39h.54v-.54l.03-.02zm.46-.26l-.33.34v.48h.47l.35-.34-.49-.48zm.59-.58l-.48.47.48.49v-.96zm-2.92-2.44v.47l.34.35.47-.49-.34-.33h-.47zm-2.25.78l-.14.14.38.38v.18h.93v.74l.39-.37h.54v-.55l.02-.02.36-.36-.38-.39v-.53h-.2l-1.9.78zm4.09-.78h-.47l-.34.33.47.49.34-.35v-.47zm1.08-.39l-.38.39h-.54v.53l-.39.39.39.38v.55h.54l.38.38v-2.62zm-1.05-.32l.36-.36-2.22.91h.53l.38.38.38-.38h.54v-.54l.03-.01zm.46-.26l-.33.34v.47h.47l.35-.34-.49-.47zm.05-.16l.54.52v-.75l-.54.23zm5.4-.42l-.48.47.48.47v-.94z"/><path d="M4.25 30.82h-.6V28h.6v2.82zm3.09 0h-.58l-1.35-1.84v1.84h-.6V28h.62l1.31 1.77V28h.6v2.82zm1.81 0h-.6v-2.29h-.83V28h2.25v.53h-.82v2.29zm3.2 0h-1.99V28h1.99v.53h-1.39v.6h1.36v.52h-1.36v.64h1.39v.53zm2.76 0h-.69l-.56-1h-.44v1h-.6V28h1.32c.29 0 .52.09.69.25.17.17.26.39.26.66 0 .23-.06.42-.18.56a.78.78 0 01-.44.28l.64 1.07zm-1.06-1.53c.13 0 .23-.03.31-.1.08-.07.12-.16.12-.28 0-.12-.04-.21-.12-.28a.445.445 0 00-.31-.1h-.63v.76h.63zm4.02 1.53h-.58l-1.35-1.84v1.84h-.6V28h.62l1.31 1.77V28h.6v2.82zm3.18 0h-.68l-.17-.48h-1.21l-.18.48h-.69L19.41 28h.76l1.08 2.82zm-1.02-1l-.44-1.22-.44 1.22h.88zm2.27 1h-.6v-2.29h-.83V28h2.25v.53h-.82v2.29zm1.81 0h-.6V28h.6v2.82zm1.89.05c-.42 0-.78-.13-1.05-.41-.28-.27-.42-.62-.42-1.05 0-.42.14-.77.42-1.04.27-.28.63-.42 1.05-.42.43 0 .78.14 1.06.41.28.28.42.63.42 1.05 0 .43-.14.78-.42 1.05-.28.28-.63.41-1.06.41zm-.62-.79c.16.17.37.26.62.26.26 0 .47-.09.62-.26.16-.18.24-.4.24-.67a.94.94 0 00-.24-.66c-.15-.18-.36-.26-.62-.26-.25 0-.46.08-.62.26-.15.17-.23.4-.23.66 0 .27.08.49.23.67zm5.04.74h-.57l-1.35-1.84v1.84h-.6V28h.62l1.3 1.77V28h.6v2.82zm3.19 0h-.68l-.18-.48h-1.2l-.18.48h-.69L31.97 28h.76l1.08 2.82zm-1.02-1l-.44-1.22-.44 1.22h.88zm3.08 1h-1.79V28h.6v2.29h1.19v.53zM7.49 35.46h-.6v-2.82h.6v2.82zm3.08 0h-.58l-1.34-1.84v1.84h-.6v-2.82h.61l1.31 1.77v-1.77h.6v2.82zm2.1 0h-.75l-1.09-2.82h.68l.79 2.17.77-2.17h.69l-1.09 2.82zm3.35 0h-2v-2.82h2v.53h-1.4v.59h1.37v.53h-1.37v.64h1.4v.53zm1.47.05c-.5 0-.9-.15-1.19-.45l.32-.46c.24.26.54.38.9.38.15 0 .27-.03.36-.09.09-.06.13-.13.13-.22 0-.08-.04-.14-.12-.19a.816.816 0 00-.3-.11c-.12-.02-.25-.05-.39-.1a3.54 3.54 0 01-.39-.14.722.722 0 01-.3-.25.687.687 0 01-.13-.43c0-.24.1-.44.3-.61.19-.16.45-.25.77-.25.45 0 .82.14 1.1.4l-.33.44c-.22-.21-.5-.31-.82-.31-.13 0-.23.02-.3.07-.07.06-.1.12-.1.21 0 .07.04.13.12.17.08.05.18.08.3.11.12.02.25.05.39.1.14.04.27.09.39.14.12.06.22.15.3.26.08.12.12.26.12.42 0 .27-.1.49-.29.66-.2.16-.48.25-.84.25zm2.73-.05h-.6v-2.29h-.82v-.53h2.24v.53h-.82v2.29zm4.27 0h-.61v-1.98l-.79 1.98h-.27l-.79-1.98v1.98h-.6v-2.82h.84l.69 1.7.68-1.7h.85v2.82zm2.55 0h-2v-2.82h2v.53h-1.39v.59h1.36v.53h-1.36v.64h1.39v.53zm2.99 0h-.57l-1.35-1.84v1.84h-.6v-2.82h.62l1.3 1.77v-1.77h.6v2.82zm1.82 0h-.61v-2.29h-.82v-.53h2.25v.53h-.82v2.29zm-18.82 4.63h-.6v-2.82h1.99v.53h-1.39v.6h1.37v.53h-1.37v1.16zm3.15.05c-.43 0-.78-.13-1.06-.41-.27-.27-.41-.62-.41-1.05 0-.42.14-.77.41-1.04.28-.28.63-.41 1.06-.41.43 0 .78.13 1.06.41.28.27.42.62.42 1.04 0 .43-.14.78-.42 1.05-.28.28-.63.41-1.06.41zm-.62-.79c.16.17.36.26.62.26s.46-.09.62-.26c.16-.18.24-.4.24-.67 0-.26-.08-.48-.24-.66a.807.807 0 00-.62-.26c-.26 0-.46.09-.62.26-.16.18-.23.4-.23.66 0 .27.07.49.23.67zm4.8.74h-.69l-.55-1h-.44v1h-.6v-2.82h1.32c.29 0 .52.09.69.26.17.16.25.38.25.65 0 .23-.06.42-.17.56a.78.78 0 01-.44.28l.63 1.07zm-1.05-1.53c.12 0 .22-.03.3-.1.08-.07.12-.16.12-.28 0-.11-.04-.21-.12-.28a.491.491 0 00-.3-.1h-.63v.76h.63zm3.71 1.27c-.22.21-.53.31-.95.31-.42 0-.73-.1-.95-.32-.21-.21-.32-.49-.32-.85v-1.7h.61v1.68c0 .2.05.36.17.48.12.12.28.18.49.18.21 0 .37-.06.49-.18.11-.12.17-.28.17-.48v-1.68h.61v1.69c0 .37-.1.65-.32.87zm3.93.26h-.6v-1.97l-.8 1.97h-.26l-.79-1.97v1.97h-.6v-2.82h.84l.68 1.71.69-1.71h.84v2.82z" fill="url(#id1)" fill-rule="nonzero"/></g></svg>