<svg width="33" height="28" fill="none" xmlns="http://www.w3.org/2000/svg"><path d="M2 7.143l8.78 6.228c2.068 1.467 3.101 2.2 4.218 2.485a6.069 6.069 0 003.004 0c1.117-.285 2.15-1.018 4.218-2.485L31 7.143M7.156 26h18.688c1.805 0 2.707 0 3.397-.374a3.333 3.333 0 001.408-1.498c.351-.733.351-1.694.351-3.614V7.486c0-1.92 0-2.88-.351-3.614a3.333 3.333 0 00-1.408-1.498C28.55 2 27.649 2 25.844 2H7.156c-1.805 0-2.707 0-3.397.374a3.33 3.33 0 00-1.408 1.498C2 4.605 2 5.566 2 7.486v13.028c0 1.92 0 2.88.351 3.614.31.645.802 1.17 1.408 1.498C4.45 26 5.351 26 7.156 26z" stroke="#fff" stroke-width="3.5" stroke-linecap="round" stroke-linejoin="round"/></svg>