<svg width="29" height="29" fill="none" xmlns="http://www.w3.org/2000/svg"><mask id="a" style="mask-type:luminance" maskUnits="userSpaceOnUse" x="0" y="0" width="29" height="29"><path d="M0 0h29v29H0V0z" fill="#fff"/></mask><g mask="url(#a)"><path fill-rule="evenodd" clip-rule="evenodd" d="M25.384 12.93L9.97 4.018a1.813 1.813 0 00-2.719 1.57v17.824a1.812 1.812 0 002.719 1.57l15.415-8.912a1.812 1.812 0 000-3.14zm1.361 5.492c3.018-1.743 3.018-6.1 0-7.846L11.33 1.664c-3.02-1.746-6.8.435-6.8 3.924v17.824c0 3.49 3.78 5.67 6.799 3.922l15.415-8.912z" fill="#fff"/></g></svg>