<svg width="45" height="45" fill="none" xmlns="http://www.w3.org/2000/svg"><path d="M16.664 8.987C19.261 4.33 20.559 2 22.5 2c1.941 0 3.24 2.329 5.836 6.987l.672 1.205c.738 1.324 1.107 1.986 1.682 2.422.575.437 1.291.6 2.724.923l1.305.296c5.042 1.14 7.563 1.711 8.163 3.64.6 1.929-1.119 3.939-4.556 7.958l-.89 1.04c-.976 1.143-1.465 1.714-1.685 2.42-.22.707-.145 1.469.002 2.993l.135 1.388c.52 5.363.78 8.044-.791 9.236-1.57 1.192-3.931.106-8.652-2.068l-1.222-.563c-1.341-.617-2.012-.926-2.723-.926-.711 0-1.382.309-2.723.926l-1.222.563c-4.721 2.174-7.082 3.26-8.652 2.069-1.57-1.193-1.31-3.874-.79-9.237l.134-1.388c.147-1.524.221-2.286.002-2.993-.22-.706-.709-1.277-1.685-2.42l-.89-1.04c-3.437-4.02-5.156-6.03-4.556-7.958.6-1.929 3.12-2.5 8.163-3.64l1.305-.296c1.432-.324 2.149-.486 2.724-.923.575-.436.944-1.098 1.682-2.422l.672-1.205z" stroke="#D8A242" stroke-width="4"/></svg>